<svg width="100%" height="100%" viewBox="0 0 453 345" fill="none" xmlns="http://www.w3.org/2000/svg">
<path d="M400.832 262.864L394.726 241.872L389.06 262.864L368.753 269.566L389.06 276.416L394.726 299.176L401.127 276.564L420.698 269.566L400.832 262.864Z" fill="#FFD62A"/>
<path d="M62.898 101.336L56.9384 80.7857L51.3466 101.262L31.4811 107.891L51.3466 114.52L56.9384 136.838L63.1923 114.668L82.3956 107.891L62.898 101.336Z" fill="#FFD62A"/>
<path d="M440.416 208.874L436.737 196.205L433.279 208.874L421.066 212.851L433.279 216.976L436.737 230.75L440.563 217.123L452.409 212.851L440.416 208.874Z" fill="#FFD62A"/>
<path d="M19.7826 169.467L16.1774 157.093L12.7929 169.467L0.799988 173.445L12.7929 177.422L16.1774 190.901L19.9297 177.496L31.4812 173.445L19.7826 169.467Z" fill="#FFD62A"/>
<path d="M252.136 10.4439L249.192 0.205673L246.397 10.4439L236.537 13.6848L246.397 16.9993L249.192 28.1214L252.283 17.0729L261.848 13.6848L252.136 10.4439Z" fill="#FFD62A"/>
<path d="M59.8814 326.503L56.9384 316.264L54.1425 326.503L44.2833 329.817L54.1425 333.132L56.9384 344.18L60.0286 333.205L69.5934 329.817L59.8814 326.503Z" fill="#FFD62A"/>
</svg>
